<mxfile host="app.diagrams.net" modified="2023-03-28T15:05:25.856Z" agent="Mozilla/5.0 (Macintosh; Intel Mac OS X 10_15_7) AppleWebKit/605.1.15 (KHTML, like Gecko) Version/16.3 Safari/605.1.15" version="21.1.1" etag="ZkRgkst7oDy9Uz_-f4MY" type="github">
  <diagram name="第 1 页" id="sM0iZXpA0FEe30EvUiT_">
    <mxGraphModel>
      <root>
        <mxCell id="0" />
        <mxCell id="1" parent="0" />
      </root>
    </mxGraphModel>
  </diagram>
</mxfile>
